<?xml version="1.0" encoding="UTF-8"?>
<svg version="1.1" xmlns="http://www.w3.org/2000/svg" width="60" height="60">
<path d="M0 0 C3.98815729 0.97669158 5.41915313 2.81698345 7.9609375 5.92578125 C9.0625 7.75 9.0625 7.75 9.0625 10.75 C9.81015625 10.71519531 10.5578125 10.68039062 11.328125 10.64453125 C12.31296875 10.61746094 13.2978125 10.59039062 14.3125 10.5625 C15.77429687 10.51029297 15.77429687 10.51029297 17.265625 10.45703125 C20.4763094 10.79334596 21.75092065 11.5444564 24.0625 13.75 C25.0625 15.9375 25.0625 15.9375 25.0625 18.75 C24.4214914 20.10629717 23.72853465 21.43863762 23 22.75 C21.20684406 25.844734 21.20684406 25.844734 21.6875 29.3125 C22.368125 30.5190625 22.368125 30.5190625 23.0625 31.75 C25.39807047 37.97818792 25.39807047 37.97818792 23.8125 41.625 C22.0625 43.75 22.0625 43.75 20.0625 44.75 C18.18870395 44.82033769 16.31248898 44.8343022 14.4375 44.8125 C13.43460938 44.80347656 12.43171875 44.79445312 11.3984375 44.78515625 C10.62757812 44.77355469 9.85671875 44.76195312 9.0625 44.75 C8.94261719 45.51699219 8.82273438 46.28398438 8.69921875 47.07421875 C7.79604216 50.86977682 6.10891013 52.3805699 3.0625 54.75 C0.125 55.5 0.125 55.5 -2.9375 54.75 C-5.3388255 52.68781387 -7.30012829 50.461534 -8.9375 47.75 C-8.9375 46.76 -8.9375 45.77 -8.9375 44.75 C-10.05898438 44.80220703 -10.05898438 44.80220703 -11.203125 44.85546875 C-12.18796875 44.88253906 -13.1728125 44.90960938 -14.1875 44.9375 C-15.16203125 44.97230469 -16.1365625 45.00710937 -17.140625 45.04296875 C-20.3513094 44.70665404 -21.62592065 43.9555436 -23.9375 41.75 C-24.9375 39.5625 -24.9375 39.5625 -24.9375 36.75 C-24.2964914 35.39370283 -23.60353465 34.06136238 -22.875 32.75 C-21.08184406 29.655266 -21.08184406 29.655266 -21.5625 26.1875 C-22.243125 24.9809375 -22.243125 24.9809375 -22.9375 23.75 C-25.27307047 17.52181208 -25.27307047 17.52181208 -23.6875 13.875 C-21.9375 11.75 -21.9375 11.75 -19.9375 10.75 C-18.06370395 10.67966231 -16.18748898 10.6656978 -14.3125 10.6875 C-12.80816406 10.70103516 -12.80816406 10.70103516 -11.2734375 10.71484375 C-10.50257812 10.72644531 -9.73171875 10.73804688 -8.9375 10.75 C-8.81761719 9.98300781 -8.69773437 9.21601563 -8.57421875 8.42578125 C-7.44818509 3.6936766 -4.65581543 1.18871883 0 0 Z M-2.5 5.9375 C-4.26431541 8.1620716 -4.56153791 9.96788056 -4.9375 12.75 C0.11259595 13.68786082 0.11259595 13.68786082 5.0625 12.75 C4.68653791 9.96788056 4.38931541 8.1620716 2.625 5.9375 C0.47887689 4.30644644 -0.35387689 4.30644644 -2.5 5.9375 Z M-19.9375 15.75 C-19.76182642 19.23055874 -19.76182642 19.23055874 -18.9375 22.75 C-17.4525 23.74 -17.4525 23.74 -15.9375 24.75 C-13.85488855 23.71287824 -13.85488855 23.71287824 -11.9375 21.75 C-11.12435089 18.14534252 -11.12435089 18.14534252 -10.9375 14.75 C-15.73720742 14.22166284 -15.73720742 14.22166284 -19.9375 15.75 Z M11.0625 14.75 C11.16657917 18.15080577 11.16657917 18.15080577 12.0625 21.75 C14.4876788 23.74083177 14.4876788 23.74083177 17.0625 24.75 C19.11869793 22.43677733 20.02149829 21.19076838 20.3125 18.0625 C20.31128498 15.78978185 20.31128498 15.78978185 19.0625 14.75 C16.39191149 14.60884839 13.73817762 14.70752893 11.0625 14.75 Z M-6.9375 15.75 C-5.9375 17.75 -5.9375 17.75 -5.9375 17.75 Z M6.0625 15.75 C7.0625 17.75 7.0625 17.75 7.0625 17.75 Z M-4.5625 20.75 C-5.67625 21.41 -6.79 22.07 -7.9375 22.75 C-7.9375 26.05 -7.9375 29.35 -7.9375 32.75 C-5.56519349 34.36316843 -3.57881875 35.71044483 -0.9375 36.75 C2.79050985 36.03307503 4.90516549 34.85488967 8.0625 32.75 C8.42666047 30.31306689 8.42666047 30.31306689 8.25 27.625 C8.22292969 26.71492188 8.19585937 25.80484375 8.16796875 24.8671875 C8.13316406 24.16851562 8.09835938 23.46984375 8.0625 22.75 C6.391875 21.76 6.391875 21.76 4.6875 20.75 C4.06101562 20.37875 3.43453125 20.0075 2.7890625 19.625 C-0.30542602 18.05675242 -1.76078876 19.08972667 -4.5625 20.75 Z M-12.9375 26.75 C-11.9375 28.75 -11.9375 28.75 -11.9375 28.75 Z M12.0625 26.75 C13.0625 28.75 13.0625 28.75 13.0625 28.75 Z M-16.9375 30.75 C-18.99369793 33.06322267 -19.89649829 34.30923162 -20.1875 37.4375 C-20.18628498 39.71021815 -20.18628498 39.71021815 -18.9375 40.75 C-16.26691149 40.89115161 -13.61317762 40.79247107 -10.9375 40.75 C-11.04157917 37.34919423 -11.04157917 37.34919423 -11.9375 33.75 C-14.3626788 31.75916823 -14.3626788 31.75916823 -16.9375 30.75 Z M16.0625 30.75 C13.97988855 31.78712176 13.97988855 31.78712176 12.0625 33.75 C11.24935089 37.35465748 11.24935089 37.35465748 11.0625 40.75 C15.06504456 40.84181134 15.06504456 40.84181134 19.0625 40.75 C19.3925 40.42 19.7225 40.09 20.0625 39.75 C19.88682642 36.26944126 19.88682642 36.26944126 19.0625 32.75 C18.0725 32.09 17.0825 31.43 16.0625 30.75 Z M-6.9375 37.75 C-5.9375 39.75 -5.9375 39.75 -5.9375 39.75 Z M6.0625 37.75 C7.0625 39.75 7.0625 39.75 7.0625 39.75 Z M-4.9375 42.75 C-4.57037028 45.46675995 -4.21005401 47.36063713 -2.625 49.625 C-0.98921676 50.95100406 -0.98921676 50.95100406 1.125 50.6875 C3.6531818 49.46418623 4.13956859 48.36497233 5.0625 45.75 C5.0625 44.76 5.0625 43.77 5.0625 42.75 C0.01240405 41.81213918 0.01240405 41.81213918 -4.9375 42.75 Z " fill="#2A8BFF" transform="translate(29.9375,2.25)"/>
<path d="M0 0 C4.68322981 1.44099379 4.68322981 1.44099379 6.0625 3.875 C6 6 6 6 4.0625 8.25 C3.381875 8.8275 2.70125 9.405 2 10 C-2.68322981 8.55900621 -2.68322981 8.55900621 -4.0625 6.125 C-4 4 -4 4 -2.0625 1.75 C-1.381875 1.1725 -0.70125 0.595 0 0 Z " fill="#2A8CFF" transform="translate(29,25)"/>
</svg>
