<?xml version="1.0" encoding="UTF-8"?>
<svg version="1.1" xmlns="http://www.w3.org/2000/svg" width="460" height="163">
<path d="M0 0 C17.32839767 -0.81226864 17.32839767 -0.81226864 25.0625 5.75 C26.56208405 9.34900172 26.13358806 12.38746663 25 16 C23.63999342 18.55314118 22.13314949 20.95934151 20.56640625 23.390625 C18.17029448 27.38215284 16.57942369 31.63335802 15 36 C16.96822886 37.96822886 20.34808709 37.66248381 23 38 C22.38125 38.28875 21.7625 38.5775 21.125 38.875 C18.86674235 39.93720042 18.86674235 39.93720042 17 42 C16.3574765 44.06874034 16.3574765 44.06874034 16 46 C19.54556354 44.08347917 21.93655165 42.49152405 24 39 C24.25027494 36.1852753 24.25027494 36.1852753 24 33.1875 C23.84407255 27.87946958 24.47095285 24.63658643 27 20 C27.66 20 28.32 20 29 20 C29.0825 18.9275 29.165 17.855 29.25 16.75 C30.06633334 12.6683333 30.58379277 11.30824813 34 9 C36.9375 8.375 36.9375 8.375 40 9 C43.8290966 12.41289045 44.89669245 13.71898636 45.3125 18.875 C45.209375 19.90625 45.10625 20.9375 45 22 C44.34 21.67 43.68 21.34 43 21 C42.26924352 18.6859378 41.59861742 16.35171131 41 14 C39.02 14 37.04 14 35 14 C34.67 15.32 34.34 16.64 34 18 C34.886875 18.061875 35.77375 18.12375 36.6875 18.1875 C40.75690719 19.18565648 42.12620487 21.05057868 45 24 C46.32 24 47.64 24 49 24 C48.01 23.01 48.01 23.01 47 22 C46.875 19.375 46.875 19.375 47 17 C47.66 17 48.32 17 49 17 C49.37125 17.66 49.7425 18.32 50.125 19 C52.40147706 22.6423633 55.21717537 25.22635701 58.35546875 28.1328125 C60 30 60 30 60 33 C59.236875 32.835 58.47375 32.67 57.6875 32.5 C52.81917494 31.83988813 47.90087423 31.5275301 43 32 C42.01 32.99 42.01 32.99 41 34 C42.051875 34.03867188 42.051875 34.03867188 43.125 34.078125 C49.72929735 34.47294712 54.37232716 35.45665044 60 39 C60.33 39.99 60.66 40.98 61 42 C53.375 40.125 53.375 40.125 50 39 C43.97083007 38.4603841 39.19731246 38.5773796 34 42 C32.18445841 43.56102491 32.18445841 43.56102491 31 45 C31.7940625 44.84144531 32.588125 44.68289062 33.40625 44.51953125 C37.79200075 43.88550424 42.07427885 43.73912194 46.5 43.6875 C47.32886719 43.65849609 48.15773438 43.62949219 49.01171875 43.59960938 C54.52273954 43.54265924 57.63843753 44.31255847 62 48 C63.9375 50.5 63.9375 50.5 65 53 C64.6875 55.3125 64.6875 55.3125 64 57 C63.34 56.01 62.68 55.02 62 54 C62.28848454 58.16990203 62.28848454 58.16990203 64.5625 61.4375 C66 63 66 63 66.1875 66.6875 C66.0946875 68.3271875 66.0946875 68.3271875 66 70 C65.690625 69.0409375 65.690625 69.0409375 65.375 68.0625 C64.10461791 65.65074923 64.10461791 65.65074923 60.875 65.25 C59.92625 65.1675 58.9775 65.085 58 65 C57.01 67.97 56.02 70.94 55 74 C57.31 74.33 59.62 74.66 62 75 C62.625 77.375 62.625 77.375 63 80 C62.34 80.66 61.68 81.32 61 82 C60.34 81.01 59.68 80.02 59 79 C57.02111039 78.27306096 55.02045442 77.60183749 53 77 C51.43022426 75.43022426 51.79262919 73.85803613 51.75 71.6875 C51.77543283 67.65003898 52.47947917 66.15065103 55 63 C55.38503486 58.61060262 55.47342266 56.71013399 53 53 C49.91634129 52.7497843 49.91634129 52.7497843 47 53 C47.20133545 53.53149658 47.4026709 54.06299316 47.61010742 54.6105957 C49.70719755 60.45823868 50.73780886 66.01541061 51.3125 72.1875 C51.41111328 73.05052734 51.50972656 73.91355469 51.61132812 74.80273438 C52.09790892 79.73266538 52.03317315 83.34730788 50 88 C44.375 88.25 44.375 88.25 41 86 C41.33 85.34 41.66 84.68 42 84 C43.65 84.33 45.3 84.66 47 85 C46.34650367 77.44961578 46.34650367 77.44961578 45 70 C41.535 70.495 41.535 70.495 38 71 C38.804375 71.433125 39.60875 71.86625 40.4375 72.3125 C43 74 43 74 44 77 C40.34132959 77 39.85941988 76.14456491 37 74 C34.69907251 72.89912521 32.36728659 71.95601958 30 71 C30.495 69.02 30.495 69.02 31 67 C31.69867188 66.95101562 32.39734375 66.90203125 33.1171875 66.8515625 C34.48230469 66.73941406 34.48230469 66.73941406 35.875 66.625 C36.77992187 66.55539063 37.68484375 66.48578125 38.6171875 66.4140625 C41.17941903 66.20431868 41.17941903 66.20431868 43 64 C42.195625 63.195625 41.39125 62.39125 40.5625 61.5625 C39.375 60.375 38.1875 59.1875 37 58 C33.74378585 57.34875717 31.69348874 57.57585171 28.84765625 59.31640625 C23.83896278 63.14356177 19.32626448 67.42334079 15 72 C17.03800992 74.27534014 17.03800992 74.27534014 20.625 75.625 C24.08679577 77.29016759 26.41479384 79.22326332 29.0625 82 C33.92268968 87.05837217 37.83015383 90.16772019 45.125 90.4375 C49.19073631 90.28302674 51.6925445 89.48059163 55 87 C55.66 87 56.32 87 57 87 C57.495 85.515 57.495 85.515 58 84 C58.33 84.99 58.66 85.98 59 87 C57.85546875 88.7890625 57.85546875 88.7890625 56.1875 90.625 C55.64480469 91.23601562 55.10210937 91.84703125 54.54296875 92.4765625 C51.27131289 95.706805 47.92531519 95.25971197 43.5546875 95.234375 C40.21937387 94.92838292 37.81228233 93.77617832 35 92 C35.495 97.445 35.495 97.445 36 103 C41.00780558 103.18485407 41.00780558 103.18485407 44.3125 100.5 C45.199375 99.675 46.08625 98.85 47 98 C45.59779668 102.46155603 43.69107786 105.11133037 40 108 C38.0703125 108.32421875 38.0703125 108.32421875 36 108.4375 C32.9322224 108.60903926 32.9322224 108.60903926 30.515625 110.3828125 C30.09796875 110.93710938 29.6803125 111.49140625 29.25 112.0625 C28.5075 113.031875 27.765 114.00125 27 115 C25.68 115 24.36 115 23 115 C22.74605469 114.46890625 22.49210937 113.9378125 22.23046875 113.390625 C21.88628906 112.68421875 21.54210937 111.9778125 21.1875 111.25 C20.85105469 110.55390625 20.51460938 109.8578125 20.16796875 109.140625 C18.95584981 106.9190826 17.56207606 104.987283 16 103 C15.87044922 104.10408203 15.87044922 104.10408203 15.73828125 105.23046875 C15.05451255 109.97921101 14.544355 113.24967284 11.6875 117.1875 C8.77025718 119.15494283 7.43810994 119.49115856 4 119 C4.639375 118.62875 5.27875 118.2575 5.9375 117.875 C8.63858072 115.41947207 8.68407005 113.55421195 9 110 C8.67386719 110.5053125 8.34773438 111.010625 8.01171875 111.53125 C7.57472656 112.1809375 7.13773438 112.830625 6.6875 113.5 C6.25824219 114.1496875 5.82898437 114.799375 5.38671875 115.46875 C4.92910156 115.9740625 4.47148438 116.479375 4 117 C3.01 117 2.02 117 1 117 C0.278125 117.515625 -0.44375 118.03125 -1.1875 118.5625 C-4.9712939 120.4964391 -8.04014917 120.17328913 -12 119 C-14.22336326 117.83426197 -16.00282514 116.54781052 -18 115 C-16 114 -16 114 -13.25 114.1875 C-9.05528909 113.94549745 -7.249206 112.61349178 -4 110 C-1.67722584 107.3908613 -1.67722584 107.3908613 0 105 C-1.41764994 105.93601246 -2.83407568 106.8738792 -4.25 107.8125 C-5.03890625 108.33457031 -5.8278125 108.85664063 -6.640625 109.39453125 C-8.81092481 110.87134122 -10.91413768 112.40689873 -13 114 C-14 112 -14 112 -14 110 C-18.29 110 -22.58 110 -27 110 C-24.08235 108.0549 -22.37462715 107.54723683 -19 107 C-20.32 105.68 -21.64 104.36 -23 103 C-23.33 103.66 -23.66 104.32 -24 105 C-31.49248309 104.66700075 -35.87448272 103.12551728 -41.3125 97.6875 C-43.35132482 94.4404827 -43.70279205 91.78940134 -44 88 C-39.25 88.875 -39.25 88.875 -37 90 C-37.33 89.01 -37.66 88.02 -38 87 C-38.60328125 86.99742188 -39.2065625 86.99484375 -39.828125 86.9921875 C-46.37156324 86.67556952 -46.37156324 86.67556952 -49.5 83.3125 C-51.99514803 77.80238144 -52 72.91352106 -52 67 C-49.525 66.505 -49.525 66.505 -47 66 C-47.33 65.34 -47.66 64.68 -48 64 C-48.804375 64.020625 -49.60875 64.04125 -50.4375 64.0625 C-53 64 -53 64 -54 63 C-54.04092937 60.66702567 -54.04241723 58.33294775 -54 56 C-53.01 55.505 -53.01 55.505 -52 55 C-52 57.31 -52 59.62 -52 62 C-51.1646875 61.071875 -51.1646875 61.071875 -50.3125 60.125 C-47.81756683 57.83235871 -46.2728318 56.83723604 -43 56 C-36.64441219 56.3287373 -36.64441219 56.3287373 -34.5 58.5625 C-32.90820819 60.39519527 -32.90820819 60.39519527 -29.375 60.25 C-26.16377902 60.38142556 -26.16377902 60.38142556 -25 59 C-25.78375 58.731875 -26.5675 58.46375 -27.375 58.1875 C-30 57 -30 57 -32 54 C-30.515 54.495 -30.515 54.495 -29 55 C-23.5695477 56.52491489 -18.91127407 56.84945514 -13.625 54.5 C-12.75875 54.005 -11.8925 53.51 -11 53 C-10.34 53 -9.68 53 -9 53 C-9 52.01 -9 51.02 -9 50 C-22.41463579 48.17436139 -22.41463579 48.17436139 -35 52 C-38.8125 52.25 -38.8125 52.25 -42 52 C-43 51 -43 51 -43.0625 48.4375 C-43.041875 47.633125 -43.02125 46.82875 -43 46 C-42.01 46.99 -41.02 47.98 -40 49 C-36.22454612 47.90931332 -33.52956528 47.0916909 -31 44 C-31.33 43.01 -31.66 42.02 -32 41 C-34.7798816 39.6100592 -36.9186326 39.81511796 -40 40 C-43.90054557 41.37484576 -45.36583724 43.64710712 -47.5625 47.0625 C-50.67295981 51.8909866 -50.67295981 51.8909866 -54 53 C-46.3264 37.512 -46.3264 37.512 -40.25 34.75 C-39.5075 34.5025 -38.765 34.255 -38 34 C-38.165 33.113125 -38.33 32.22625 -38.5 31.3125 C-38.92995757 28.46403108 -39.08441035 25.86995198 -39 23 C-40.32 23 -41.64 23 -43 23 C-42.67 22.01 -42.34 21.02 -42 20 C-39.625 19.8125 -39.625 19.8125 -37 20 C-36.34 20.99 -35.68 21.98 -35 23 C-34.46375 22.505 -33.9275 22.01 -33.375 21.5 C-30.40641555 19.62510456 -28.44687573 19.76498575 -25 20 C-25.78375 20.61875 -26.5675 21.2375 -27.375 21.875 C-29.96837647 23.89858661 -29.96837647 23.89858661 -32 26 C-31.67673447 29.59679066 -31.67673447 29.59679066 -31 33 C-30.69707031 32.30132812 -30.39414062 31.60265625 -30.08203125 30.8828125 C-29.66308594 29.97273438 -29.24414062 29.06265625 -28.8125 28.125 C-28.40644531 27.22007813 -28.00039063 26.31515625 -27.58203125 25.3828125 C-25.62649191 22.43743226 -24.39571002 21.86867 -21 21 C-18.10546875 20.8046875 -18.10546875 20.8046875 -15.1875 20.875 C-13.72376953 20.90207031 -13.72376953 20.90207031 -12.23046875 20.9296875 C-11.49441406 20.95289062 -10.75835937 20.97609375 -10 21 C-9.34 22.32 -8.68 23.64 -8 25 C-8.99 24.67 -9.98 24.34 -11 24 C-17.08568662 23.76705155 -17.08568662 23.76705155 -23 25 C-23.33 26.98 -23.66 28.96 -24 31 C-22.02 31 -20.04 31 -18 31 C-17.505 31.99 -17.505 31.99 -17 33 C-18.98 33.66 -20.96 34.32 -23 35 C-22.72965366 37.43717258 -22.72965366 37.43717258 -22 40 C-21.01 40.66 -20.02 41.32 -19 42 C-18.70867188 41.33613281 -18.41734375 40.67226563 -18.1171875 39.98828125 C-15.47248315 34.2913552 -13.31888724 30.43511467 -8 27 C-5.125 26.1875 -5.125 26.1875 -3 26 C-2.505 27.485 -2.505 27.485 -2 29 C-2.763125 29.103125 -3.52625 29.20625 -4.3125 29.3125 C-7.27544506 30.07046269 -8.19104648 30.58806197 -10 33 C-11.64883942 36.38445986 -12 38.13754696 -12 42 C-10.39773045 42.22245393 -8.79303233 42.42746669 -7.1875 42.625 C-6.29417969 42.74101563 -5.40085938 42.85703125 -4.48046875 42.9765625 C-1.74309609 43.23500743 -1.74309609 43.23500743 1 41 C1.91178875 35.51283884 1.69458256 30.46634095 -0.6875 25.4375 C-4.72480109 21.18196642 -8.62082206 19.64515197 -14.3125 18.5 C-20.18605466 17.23472178 -25.60516766 15.69741617 -31 13 C-30.67 11.68 -30.34 10.36 -30 9 C-29.236875 9.61875 -28.47375 10.2375 -27.6875 10.875 C-23.27594257 13.872733 -18.1830582 14.29908821 -13 15 C-15.06026719 12.35418376 -15.06026719 12.35418376 -18 10 C-21.71000718 9.58168596 -21.71000718 9.58168596 -25 10 C-22.37801226 7.84622436 -20.35595828 6.59927826 -17 6 C-17 5.01 -17 4.02 -17 3 C-11.34261732 3.90003815 -11.34261732 3.90003815 -9.24609375 4.51171875 C-6.10950278 5.19358635 -3.01746585 5.23778434 0.1875 5.375 C6.25483064 5.69262656 11.35928661 6.72392267 17 9 C16.505 6.525 16.505 6.525 16 4 C10.60539047 1.72858546 5.73842251 1.79586639 0 2 C0 1.34 0 0.68 0 0 Z M-12 9 C-10.263234 12.76562445 -8.50867132 14.68746663 -5 17 C-1.81237891 17.79690838 -1.81237891 17.79690838 1 18 C1.99 16.35 2.98 14.7 4 13 C4.33 13.33 4.66 13.66 5 14 C4.608125 14.86625 4.21625 15.7325 3.8125 16.625 C2.63954497 20.05470991 2.63954497 20.05470991 4.375 23.375 C4.91125 24.24125 5.4475 25.1075 6 26 C6.66 26 7.32 26 8 26 C11.37979093 21.0455893 11.37979093 21.0455893 11.875 15.1875 C11.26475834 11.93495942 11.26475834 11.93495942 9 10 C6.2567198 9.09118984 3.76740395 8.88054997 0.890625 8.90234375 C-0.24052734 8.90717773 -0.24052734 8.90717773 -1.39453125 8.91210938 C-2.17183594 8.92048828 -2.94914062 8.92886719 -3.75 8.9375 C-4.54277344 8.94201172 -5.33554687 8.94652344 -6.15234375 8.95117188 C-8.10159508 8.96291435 -10.05080738 8.98084854 -12 9 Z M31.3046875 23.234375 C29.58151541 25.56633245 29.79070646 26.72892731 30.1875 29.5625 C30.28417969 30.34753906 30.38085938 31.13257813 30.48046875 31.94140625 C30.86513809 34.20685895 30.86513809 34.20685895 33 36 C33.30292969 35.44570313 33.60585937 34.89140625 33.91796875 34.3203125 C37.38250429 28.32933105 37.38250429 28.32933105 40.8125 26.5 C41.534375 26.335 42.25625 26.17 43 26 C43 25.34 43 24.68 43 24 C39.31227679 21.73063187 35.05264549 20.50544706 31.3046875 23.234375 Z M-9.875 57.875 C-15.77595396 61.70414567 -20.91759515 63.20613275 -27.9375 63.625 C-29.68353516 63.73714844 -29.68353516 63.73714844 -31.46484375 63.8515625 C-34.98130577 63.99921505 -38.48089536 64.02696632 -42 64 C-42.33 65.65 -42.66 67.3 -43 69 C-45.31 68.67 -47.62 68.34 -50 68 C-49.814375 68.928125 -49.62875 69.85625 -49.4375 70.8125 C-49 74 -49 74 -50 77 C-48.62750037 79.67676547 -48.62750037 79.67676547 -47 82 C-45.9790625 81.7525 -45.9790625 81.7525 -44.9375 81.5 C-41.44241543 80.90509199 -38.54012985 80.62070037 -35 81 C-31.35317124 84.22223785 -28.56997349 87.8504929 -25.6875 91.75 C-21.96325378 96.48254361 -21.96325378 96.48254361 -16.4375 98.1875 C-15.303125 98.125625 -14.16875 98.06375 -13 98 C-10.88222561 93.76445122 -11.74843582 88.88047461 -13 84.5 C-14.38198966 79.66303618 -15.05772402 75.24677619 -12.8359375 70.52734375 C-10.6615194 67.53404904 -8.34622412 65.79326145 -5.3125 63.6875 C-4.31863281 62.99011719 -3.32476562 62.29273438 -2.30078125 61.57421875 C-1.54152344 61.05472656 -0.78226563 60.53523438 0 60 C-0.495 57.525 -0.495 57.525 -1 55 C-5.35014297 55 -6.35791662 55.58506098 -9.875 57.875 Z M-41 58 C-41.99 58.99 -42.98 59.98 -44 61 C-41.69 61.33 -39.38 61.66 -37 62 C-37.33 61.01 -37.66 60.02 -38 59 C-38.99 58.67 -39.98 58.34 -41 58 Z M17 89 C16.95936168 90.66617115 16.957279 92.33388095 17 94 C19.91994609 94.04990627 19.91994609 94.04990627 22.4921875 93.75 C25 94 25 94 26.6953125 95.75 C27.16710937 96.4925 27.63890625 97.235 28.125 98 C29.49188091 100.22172082 29.49188091 100.22172082 31 102 C31.99 102 32.98 102 34 102 C32.69436117 94.7692248 32.69436117 94.7692248 28.8125 88.8125 C25.57334426 87.8767439 19.61982753 86.38017247 17 89 Z M-43 90 C-41.55922954 93.36179774 -39.75249979 95.59156268 -37 98 C-36.34 98 -35.68 98 -35 98 C-36.44077046 94.63820226 -38.24750021 92.40843732 -41 90 C-41.66 90 -42.32 90 -43 90 Z M-27 98 C-26 100 -26 100 -26 100 Z M8 100 C9 104 9 104 9 104 Z M24 101 C22.97296252 106.55493924 22.97296252 106.55493924 24 112 C27.25543229 111.65120368 28.01873107 110.97866739 30.25 108.4375 C30.8275 107.633125 31.405 106.82875 32 106 C31.05125 105.175 30.1025 104.35 29.125 103.5 C28.59132813 103.0359375 28.05765625 102.571875 27.5078125 102.09375 C26.04063579 100.80427542 26.04063579 100.80427542 24 101 Z M7 104 C6.67 105.98 6.34 107.96 6 110 C6.66 109.34 7.32 108.68 8 108 C7.6814823 105.89179203 7.6814823 105.89179203 7 104 Z " fill="#00BEFE" transform="translate(54,22)"/>
<path d="M0 0 C1.32 0 2.64 0 4 0 C11.70303349 22.55594144 19.40569857 45.1110762 26.90783691 67.73477173 C30.4331033 78.36167683 34.03354245 88.96060767 37.67752075 99.54736328 C42.48411978 113.51541031 47.18383375 127.51389375 51.75 141.5625 C52.01079346 142.36203094 52.27158691 143.16156189 52.5402832 143.98532104 C53.27497643 146.24045361 54.00549184 148.49689 54.734375 150.75390625 C55.05840302 151.74809067 55.05840302 151.74809067 55.38897705 152.76235962 C56.47655761 156.15125271 57.38603578 159.49312674 58 163 C54.7 163 51.4 163 48 163 C43.39563652 151.10513457 39.33132102 139.08150457 35.4375 126.9375 C34.33328099 123.50871125 33.22711533 120.08055139 32.12109375 116.65234375 C31.85281265 115.81944321 31.58453156 114.98654266 31.30812073 114.12840271 C29.32841048 107.99030307 27.29694384 101.87123243 25.2487793 95.75561523 C23.11021993 89.32404949 21.03340385 82.872525 18.95013428 76.42288208 C14.29743955 62.02261502 9.59367058 47.64152439 4.77099609 33.29711914 C3.84318728 30.53278947 2.92141019 27.76646821 2 25 C-5.28864364 45.96815738 -12.38009819 66.97711167 -18.95214844 88.18212891 C-21.40967552 96.09303475 -24.0067861 103.91374828 -26.83666992 111.7019043 C-28.33062855 115.93734754 -29.63054101 120.21921051 -30.92822266 124.51806641 C-32.83175518 130.70216226 -34.89516901 136.83362702 -36.9465332 142.9699707 C-37.69905052 145.22206784 -38.44827985 147.47524183 -39.19726562 149.72851562 C-39.67689051 151.16673098 -40.15670103 152.60488445 -40.63671875 154.04296875 C-40.85962082 154.71369919 -41.08252289 155.38442963 -41.31217957 156.07548523 C-42.88497577 160.76995155 -42.88497577 160.76995155 -44 163 C-47.3 163 -50.6 163 -54 163 C-50.84718906 152.78143037 -47.58068891 142.60820934 -44.18139648 132.46902466 C-43.40780501 130.16142057 -42.63630416 127.85312558 -41.86523438 125.54467773 C-39.98820977 119.92650699 -38.10808533 114.30937533 -36.22735596 108.69244385 C-34.48312336 103.48305678 -32.7404995 98.27313557 -31 93.0625 C-30.75280212 92.3227594 -30.50560425 91.5830188 -30.25091553 90.82086182 C-26.19931918 78.68845182 -22.25155127 66.52433558 -18.32946777 54.34954834 C-12.45976752 36.15132641 -6.24736408 18.07142826 0 0 Z " fill="#00AEFF" transform="translate(293,0)"/>
<path d="M0 0 C3.3 0 6.6 0 10 0 C9.34288198 5.03526581 7.9099315 9.50583383 6.1875 14.25 C5.93935547 14.94996094 5.69121094 15.64992188 5.43554688 16.37109375 C3.73933559 21.11012682 1.90224228 25.7834086 0.01977539 30.45117188 C-1.66270561 34.65636738 -3.2679898 38.89051018 -4.875 43.125 C-5.22377197 44.04240967 -5.57254395 44.95981934 -5.93188477 45.9050293 C-8.42501422 52.46929788 -10.90174775 59.03954201 -13.359375 65.6171875 C-14.65482057 69.08324608 -15.95940853 72.5457991 -17.265625 76.0078125 C-17.66531494 77.06895264 -18.06500488 78.13009277 -18.47680664 79.22338867 C-19.2637644 81.31257983 -20.05194551 83.40131072 -20.84155273 85.48950195 C-21.20708252 86.46105225 -21.5726123 87.43260254 -21.94921875 88.43359375 C-22.27237061 89.29009521 -22.59552246 90.14659668 -22.9284668 91.02905273 C-23.28207275 92.00946533 -23.63567871 92.98987793 -24 94 C-24.25692627 94.61896652 -24.51385254 95.23793304 -24.77856445 95.87565613 C-27.4098087 102.70788986 -27.45714646 109.23818986 -27.4765625 116.49609375 C-27.49214203 117.76598648 -27.50772156 119.03587921 -27.52377319 120.34425354 C-27.56305757 123.69224821 -27.59051733 127.03987188 -27.61126709 130.38800049 C-27.64302383 135.12737606 -27.69435399 139.86655279 -27.74765015 144.60572815 C-27.77489634 147.12417365 -27.79623903 149.64269111 -27.81118774 152.16123962 C-27.82144989 153.29324295 -27.83171204 154.42524628 -27.84228516 155.59155273 C-27.84878082 156.59032944 -27.85527649 157.58910614 -27.86196899 158.6181488 C-28 161 -28 161 -29 163 C-32.3 163 -35.6 163 -39 163 C-39.18327156 155.81786969 -39.32891661 148.63708933 -39.41449738 141.45308495 C-39.45564893 138.11412534 -39.51569988 134.77818251 -39.60351562 131.43994141 C-40.03333262 114.65811624 -39.00898768 100.83566345 -32.06938171 85.42950439 C-30.18423827 81.14668918 -28.58279215 76.75414134 -26.9375 72.375 C-26.27300177 70.64029289 -25.60774464 68.9058761 -24.94140625 67.171875 C-22.67246403 61.18919327 -20.58861914 55.14582169 -18.50366211 49.09716797 C-16.37239609 42.95586076 -14.003998 36.95481548 -11.54296875 30.9375 C-9.30911932 25.35360502 -7.38805318 19.65382299 -5.44726562 13.96289062 C-3.81681962 9.2090141 -2.04313139 4.59241617 0 0 Z " fill="#00ADFF" transform="translate(450,0)"/>
<path d="M0 0 C2.33294775 -0.04241723 4.66702567 -0.04092937 7 0 C8.6508682 1.6508682 8.12955966 3.57384714 8.13371277 5.84745789 C8.13797775 6.89719788 8.14224274 7.94693787 8.14663696 9.02848816 C8.14618378 10.19044205 8.14573059 11.35239594 8.14526367 12.54956055 C8.14862228 13.76592194 8.1519809 14.98228333 8.15544128 16.23550415 C8.16334212 19.58547065 8.16662084 22.93537516 8.16725707 26.28534675 C8.16796733 28.38251813 8.17010143 30.47968302 8.17275429 32.5768528 C8.18202443 39.90678951 8.18608807 47.23670801 8.18530273 54.56665039 C8.18470506 61.37321626 8.19519121 68.17970206 8.2110464 74.98624772 C8.22419693 80.84291759 8.22948334 86.69956161 8.22884732 92.5562461 C8.22859405 96.04768002 8.23134826 99.53904319 8.24202538 103.03046227 C8.25366088 106.94310883 8.24891406 110.85564961 8.24291992 114.76831055 C8.24853943 115.90394943 8.25415894 117.03958832 8.25994873 118.2096405 C8.20945254 131.28845591 7.16655427 144.17636068 -0.1875 155.3125 C-4.65508143 159.58152226 -9.27441497 162.70797303 -15.5 163.375 C-18 163 -18 163 -19 162 C-19.04080783 160.00041636 -19.04254356 157.99954746 -19 156 C-18.32453125 155.69707031 -17.6490625 155.39414063 -16.953125 155.08203125 C-9.59698797 151.62719811 -6.00071775 148.8063225 -2.93255615 141.17289734 C-0.56789029 134.53272971 -0.42533354 128.3516901 -0.45410156 121.35864258 C-0.44376389 120.04030426 -0.43342621 118.72196594 -0.42277527 117.36367798 C-0.39514301 113.78377971 -0.39150547 110.20422857 -0.39249516 106.62423921 C-0.38934624 102.86991423 -0.36368729 99.11574113 -0.34051514 95.36149597 C-0.30010206 88.26804596 -0.2796492 81.17468753 -0.26654124 74.08114022 C-0.25062113 65.9987323 -0.21218468 57.91647913 -0.17194796 49.8341614 C-0.08975034 33.2228189 -0.03553279 16.61150931 0 0 Z " fill="#00AEFF" transform="translate(206,0)"/>
<path d="M0 0 C3.3125 -0.3125 3.3125 -0.3125 7 0 C9.87180219 3.70503053 10.86824823 7.6329272 11.97265625 12.13671875 C12.14123642 12.81620071 12.30981659 13.49568268 12.48350525 14.195755 C13.0175906 16.35784907 13.53993695 18.52259593 14.0625 20.6875 C14.41660781 22.12192023 14.77141947 23.55616689 15.12695312 24.99023438 C16.9267184 32.29497844 18.59966422 39.60651733 20 47 C17.03 47 14.06 47 11 47 C9.91365023 43.09022217 8.82936572 39.17987753 7.74682617 35.26904297 C7.37985236 33.9443492 7.01235693 32.61979981 6.64428711 31.29541016 C5.41400791 26.86774779 4.2006258 22.43579225 3 18 C2.69271973 16.87142578 2.38543945 15.74285156 2.06884766 14.58007812 C1.79476074 13.53787109 1.52067383 12.49566406 1.23828125 11.421875 C0.87730347 10.0620752 0.87730347 10.0620752 0.5090332 8.67480469 C-0.05131457 5.73035856 -0.08696849 2.99039923 0 0 Z " fill="#00ACFF" transform="translate(284,116)"/>
<path d="M0 0 C0.46148437 0.38671875 0.92296875 0.7734375 1.3984375 1.171875 C6.58903454 5.31614616 11.74315455 7.82036122 18 10 C18 12.31 18 14.62 18 17 C11.53884903 16.74461854 7.16371761 16.22485986 2 12 C1.44054687 11.54625 0.88109375 11.0925 0.3046875 10.625 C-1.14687705 9.43674251 -2.57571161 8.22081862 -4 7 C-3.42805835 3.68273845 -2.42999536 2.27364177 0 0 Z " fill="#00AEFF" transform="translate(164,146)"/>
<path d="M0 0 C3.3 0 6.6 0 10 0 C12.25140683 4.95309502 14.39749629 9.79186293 16 15 C12.78548731 16.60725635 9.56387464 16.05748185 6 16 C0 4.26213592 0 4.26213592 0 0 Z " fill="#00ACFF" transform="translate(374,0)"/>
<path d="M0 0 C0.66 0 1.32 0 2 0 C1.67 0.66 1.34 1.32 1 2 C0.67 1.34 0.34 0.68 0 0 Z " fill="#00C0FF" transform="translate(34,134)"/>
<path d="M0 0 C2 1 2 1 2 1 Z " fill="#00BFFF" transform="translate(25,130)"/>
<path d="" fill="#00B9FF" transform="translate(0,0)"/>
<path d="" fill="#00B8FF" transform="translate(0,0)"/>
<path d="" fill="#00BCFF" transform="translate(0,0)"/>
<path d="" fill="#00BFFF" transform="translate(0,0)"/>
<path d="" fill="#00BBFF" transform="translate(0,0)"/>
</svg>
