<?xml version="1.0" encoding="UTF-8"?>
<svg version="1.1" xmlns="http://www.w3.org/2000/svg" width="60" height="60">
<path d="M0 0 C19.8 0 39.6 0 60 0 C60 19.8 60 39.6 60 60 C40.2 60 20.4 60 0 60 C0 40.2 0 20.4 0 0 Z " fill="#FCDC00" transform="translate(0,0)"/>
<path d="M0 0 C2.4375 1.5 2.4375 1.5 4 3 C3.34 4.32 2.68 5.64 2 7 C-0.31 6.67 -2.62 6.34 -5 6 C-4.79905284 7.94389713 -4.79905284 7.94389713 -4 10 C-2.22531753 11.2729239 -2.22531753 11.2729239 -0.0625 12.125 C2.53209987 13.26455203 3.96549847 13.96549847 6 16 C6.78837421 22.98274296 6.78837421 22.98274296 4.0625 26.5 C-0.05369213 28.51609411 -3.495833 28.84707661 -8 28 C-11.0625 26 -11.0625 26 -13 24 C-12.505 22.515 -12.505 22.515 -12 21 C-10.0625 20.1875 -10.0625 20.1875 -8 20 C-7.34 20.66 -6.68 21.32 -6 22 C-2.91652174 22.16681109 -2.91652174 22.16681109 0 22 C0 21.01 0 20.02 0 19 C-0.54269531 18.74605469 -1.08539063 18.49210937 -1.64453125 18.23046875 C-2.35996094 17.88628906 -3.07539062 17.54210937 -3.8125 17.1875 C-4.52019531 16.85105469 -5.22789063 16.51460937 -5.95703125 16.16796875 C-8.07776983 14.95553885 -9.49003697 13.92007644 -11 12 C-11.75471698 5.20754717 -11.75471698 5.20754717 -9.4375 1.5 C-6.0761612 -0.56851618 -3.88040089 -0.48505011 0 0 Z " fill="#0F0D00" transform="translate(49,27)"/>
<path d="M0 0 C1.98 0 3.96 0 6 0 C6.08741124 3.56234428 6.14052896 7.12441108 6.1875 10.6875 C6.21263672 11.69490234 6.23777344 12.70230469 6.26367188 13.74023438 C6.35673244 23.13935131 6.35673244 23.13935131 3 27 C-0.18774083 28.59387042 -3.53927959 28.52663137 -7 28 C-9.5 26 -9.5 26 -11 24 C-10.01 22.515 -10.01 22.515 -9 21 C-6.36 21.33 -3.72 21.66 -1 22 C-0.67 14.74 -0.34 7.48 0 0 Z " fill="#161300" transform="translate(27,27)"/>
</svg>
