<?xml version="1.0" encoding="UTF-8"?>
<svg version="1.1" xmlns="http://www.w3.org/2000/svg" width="60" height="60">
<path d="M0 0 C17.82 0 35.64 0 54 0 C54 7.78567971 53.97044886 15.30433549 53.34375 23.01953125 C53.27716187 23.88897873 53.21057373 24.75842621 53.14196777 25.65422058 C52.93261597 28.374031 52.71645556 31.09324674 52.5 33.8125 C52.35501293 35.68030321 52.21047839 37.54814161 52.06640625 39.41601562 C51.71614678 43.94443245 51.35978942 48.47233079 51 53 C49.73177899 53.47568907 48.46354785 53.95135112 47.1953125 54.42700195 C46.13594482 54.82433281 46.13594482 54.82433281 45.05517578 55.22969055 C42.3759301 56.23391038 39.69680975 57.2311585 37 58.1875 C36.05125 58.53167969 35.1025 58.87585937 34.125 59.23046875 C26.41507744 61.12903718 20.39198964 59.53584901 13.0625 57.0625 C12.20076172 56.78470703 11.33902344 56.50691406 10.45117188 56.22070312 C4.16491328 54.16491328 4.16491328 54.16491328 3 53 C2.69571561 50.11550626 2.45083854 47.24755932 2.24609375 44.35546875 C2.18092056 43.47530594 2.11574738 42.59514313 2.04859924 41.68830872 C1.91107944 39.81458717 1.77589323 37.94069315 1.64282227 36.06665039 C1.44104872 33.23726227 1.22990375 30.40869151 1.01757812 27.58007812 C0.88484347 25.75524994 0.75266572 23.93038114 0.62109375 22.10546875 C0.55860947 21.27371628 0.49612518 20.44196381 0.43174744 19.58500671 C-0.02594431 13.00794344 0 6.64077561 0 0 Z " fill="#FE7919" transform="translate(3,0)"/>
<path d="M0 0 C8.91 0 17.82 0 27 0 C27 7.78567971 26.97044886 15.30433549 26.34375 23.01953125 C26.27716187 23.88897873 26.21057373 24.75842621 26.14196777 25.65422058 C25.93261597 28.374031 25.71645556 31.09324674 25.5 33.8125 C25.35501293 35.68030321 25.21047839 37.54814161 25.06640625 39.41601562 C24.71614678 43.94443245 24.35978942 48.47233079 24 53 C22.7348194 53.47598341 21.46949097 53.95157391 20.20410156 54.42700195 C19.14718109 54.82433281 19.14718109 54.82433281 18.06890869 55.22969055 C15.30947078 56.2571023 12.53636794 57.23561252 9.75 58.1875 C8.75484375 58.53167969 7.7596875 58.87585937 6.734375 59.23046875 C4 60 4 60 0 60 C0 57.03 0 54.06 0 51 C6.93 48.525 6.93 48.525 14 46 C14.09087891 44.22882812 14.09087891 44.22882812 14.18359375 42.421875 C14.26802582 40.8645723 14.35267249 39.30728121 14.4375 37.75 C14.47681641 36.97269531 14.51613281 36.19539063 14.55664062 35.39453125 C14.59853516 34.64042969 14.64042969 33.88632812 14.68359375 33.109375 C14.72025146 32.41811523 14.75690918 31.72685547 14.79467773 31.01464844 C15 29 15 29 16 25 C7.75 25 -0.5 25 -9 25 C-9 22.03 -9 19.06 -9 16 C-0.42 16 8.16 16 17 16 C17 13.36 17 10.72 17 8 C11.39 8 5.78 8 0 8 C0 5.36 0 2.72 0 0 Z " fill="#FE4C01" transform="translate(30,0)"/>
<path d="M0 0 C11.22 0 22.44 0 34 0 C34 2.31 34 4.62 34 7 C25.42 7 16.84 7 8 7 C8 9.97 8 12.94 8 16 C16.25 16 24.5 16 33 16 C32.67 22.93 32.34 29.86 32 37 C20.27461387 42.21128272 13.85135749 41.42450679 2 37 C2 34.69 2 32.38 2 30 C4.31 30 6.62 30 9 30 C9 30.66 9 31.32 9 32 C14.52967941 32.71033431 19.49983036 33.30267176 25 32 C25 29.03 25 26.06 25 23 C17.08 23 9.16 23 1 23 C0.67 15.41 0.34 7.82 0 0 Z " fill="#E4D9D8" transform="translate(13,9)"/>
<path d="M0 0 C11.22 0 22.44 0 34 0 C34 2.31 34 4.62 34 7 C25.42 7 16.84 7 8 7 C8 9.97 8 12.94 8 16 C10.97 16 13.94 16 17 16 C17 17.98 17 19.96 17 22 C12.05 22 7.1 22 2 22 C1.66304138 19.27123692 1.33031571 16.54206837 1 13.8125 C0.90460937 13.04357422 0.80921875 12.27464844 0.7109375 11.48242188 C0.62070313 10.73154297 0.53046875 9.98066406 0.4375 9.20703125 C0.35371094 8.5210083 0.26992187 7.83498535 0.18359375 7.12817383 C-0.02069373 4.76012333 0 2.37684592 0 0 Z " fill="#ECEBEF" transform="translate(13,9)"/>
<path d="M0 0 C11.22 0 22.44 0 34 0 C34 2.31 34 4.62 34 7 C25.42 7 16.84 7 8 7 C8 6.67 8 6.34 8 6 C10.97 6 13.94 6 17 6 C17 4.35 17 2.7 17 1 C11.72 1 6.44 1 1 1 C0.67 2.32 0.34 3.64 0 5 C0 3.35 0 1.7 0 0 Z " fill="#E5DCDB" transform="translate(13,9)"/>
<path d="M0 0 C2.31 0 4.62 0 7 0 C7 0.66 7 1.32 7 2 C7.94875 2.12375 8.8975 2.2475 9.875 2.375 C13 3 13 3 15 5 C15.125 8.125 15.125 8.125 15 11 C9.88634986 9.9318153 4.92772031 8.76892524 0 7 C0 4.69 0 2.38 0 0 Z " fill="#ECE6E5" transform="translate(15,39)"/>
<path d="M0 0 C2.97 0 5.94 0 9 0 C9 2.64 9 5.28 9 8 C14.28 8 19.56 8 25 8 C25 8.33 25 8.66 25 9 C16.75 9 8.5 9 0 9 C0 6.03 0 3.06 0 0 Z " fill="#FC7C26" transform="translate(21,16)"/>
<path d="M0 0 C2.64 0 5.28 0 8 0 C8 2.97 8 5.94 8 9 C5.36 9.66 2.72 10.32 0 11 C0 7.37 0 3.74 0 0 Z " fill="#FE4F05" transform="translate(30,32)"/>
</svg>
