<?xml version="1.0" encoding="UTF-8"?>
<svg version="1.1" xmlns="http://www.w3.org/2000/svg" width="60" height="60">
<path d="M0 0 C17.82 0 35.64 0 54 0 C52.8724905 20.29517092 52.8724905 20.29517092 52.28125 27.08984375 C52.21844849 27.8119252 52.15564697 28.53400665 52.09094238 29.27796936 C51.96131881 30.75860042 51.83028541 32.23910882 51.69775391 33.71948242 C51.4954069 35.98901645 51.30027078 38.25910401 51.10546875 40.52929688 C50.97698587 41.98701654 50.84809613 43.44470042 50.71875 44.90234375 C50.60466797 46.19648193 50.49058594 47.49062012 50.37304688 48.82397461 C50 52 50 52 49 55 C46.3329361 56.06742693 43.81685953 56.92104426 41.0625 57.6875 C39.89170898 58.01403564 39.89170898 58.01403564 38.69726562 58.34716797 C29.20067287 60.87525095 22.34466431 60.31117444 12.9375 57.6875 C12.17373047 57.47496582 11.40996094 57.26243164 10.62304688 57.04345703 C8.7151452 56.46288514 6.85149846 55.74101686 5 55 C4.12245746 52.36737239 3.76282311 50.36954613 3.51928711 47.63964844 C3.43927963 46.76153503 3.35927216 45.88342163 3.27684021 44.97869873 C3.19450638 44.0318219 3.11217255 43.08494507 3.02734375 42.109375 C2.8962899 40.6424118 2.8962899 40.6424118 2.7625885 39.14581299 C2.57848111 37.07474154 2.39619168 35.0035078 2.21557617 32.93212891 C1.93976322 29.77589892 1.6568416 26.6203649 1.37304688 23.46484375 C1.19488386 21.4505587 1.01713611 19.43623687 0.83984375 17.421875 C0.75548569 16.48309509 0.67112762 15.54431519 0.58421326 14.5770874 C0.50735794 13.68636536 0.43050262 12.79564331 0.35131836 11.87792969 C0.28327499 11.10310242 0.21523163 10.32827515 0.14512634 9.52996826 C-0.03681793 6.358158 0 3.17702441 0 0 Z " fill="#2497F3" transform="translate(3,0)"/>
<path d="M0 0 C10.56 0 21.12 0 32 0 C32 11.25 32 11.25 31.5625 16.2265625 C31.47226562 17.27714844 31.38203125 18.32773437 31.2890625 19.41015625 C31.19367187 20.47105469 31.09828125 21.53195313 31 22.625 C30.85691406 24.27435547 30.85691406 24.27435547 30.7109375 25.95703125 C30.47777676 28.63837982 30.2407296 31.31932221 30 34 C28.25384856 34.4965842 26.50614606 34.98771641 24.7578125 35.4765625 C23.29819092 35.88769287 23.29819092 35.88769287 21.80908203 36.30712891 C14.54332489 38.09925638 8.88867242 36.58325216 2 34 C2 30.37 2 26.74 2 23 C3.98 23 5.96 23 8 23 C8 24.98 8 26.96 8 29 C12.95 29 17.9 29 23 29 C23.33 26.03 23.66 23.06 24 20 C16.41 20 8.82 20 1 20 C1 17.69 1 15.38 1 13 C8.92 13 16.84 13 25 13 C25 10.69 25 8.38 25 6 C16.75 6 8.5 6 0 6 C0 4.02 0 2.04 0 0 Z " fill="#EDF4F9" transform="translate(14,11)"/>
</svg>
