<?xml version="1.0" encoding="UTF-8"?>
<svg version="1.1" xmlns="http://www.w3.org/2000/svg" width="461" height="164">
<path d="M0 0 C9.70306229 -0.45483104 17.15391376 -0.78316147 25.0625 5.6875 C26.64730341 9.59668176 26.14601649 12.99523906 25 17 C23.65487138 19.55822008 22.14552091 21.93933423 20.56640625 24.359375 C18.02391423 28.64547127 16.52716276 33.27477874 15 38 C17.64 38 20.28 38 23 38 C22.505 38.99 22.505 38.99 22 40 C19.9375 40.625 19.9375 40.625 18 41 C17.67 42.65 17.34 44.3 17 46 C20.62488602 44.09216525 22.55368106 42.86364074 24 39 C24.1295008 36.41326629 24.1295008 36.41326629 23.9375 33.6875 C23.85131376 28.67543883 24.6984213 25.52095816 27 21 C27.92775981 18.38324157 28.84853687 15.76533976 29.7421875 13.13671875 C31.40161985 10.31774516 32.90101693 9.86215912 36 9 C39.51649667 9.08576821 40.70555342 9.72942747 43.3125 12.125 C45.38044558 15.64816654 45.31523361 17.98077152 45 22 C44.34 21.67 43.68 21.34 43 21 C42.7525 20.195625 42.505 19.39125 42.25 18.5625 C41.19044598 15.67628816 41.19044598 15.67628816 37.875 14.6875 C36.92625 14.460625 35.9775 14.23375 35 14 C34.67 15.32 34.34 16.64 34 18 C35.3303125 18.12375 35.3303125 18.12375 36.6875 18.25 C40.44097537 19.09984348 42.25968046 20.34027809 45 23 C45 23.66 45 24.32 45 25 C46.65 25 48.3 25 50 25 C49.505 24.608125 49.01 24.21625 48.5 23.8125 C46.54406857 21.44908285 46.75792027 19.98564997 47 17 C47.66 17 48.32 17 49 17 C49.93974841 18.44318505 50.87548933 19.88923002 51.78515625 21.3515625 C53.09003012 23.12216306 54.43568061 24.2433842 56.1875 25.5625 C59.29587488 28.25642489 59.46331773 29.11390309 60 33 C58.87980469 32.90460937 57.75960937 32.80921875 56.60546875 32.7109375 C55.1328565 32.59838115 53.66019763 32.4864337 52.1875 32.375 C51.44951172 32.31054688 50.71152344 32.24609375 49.95117188 32.1796875 C45.19441504 31.82029739 45.19441504 31.82029739 41 34 C41.92941406 34.08636719 42.85882813 34.17273437 43.81640625 34.26171875 C51.25555399 35.10725275 56.49720116 35.75314529 62 41 C62.33 41.99 62.66 42.98 63 44 C62.34 44 61.68 44 61 44 C61 43.34 61 42.68 61 42 C47.70811053 38.44564216 47.70811053 38.44564216 35 42 C32.62208021 44.04044964 32.62208021 44.04044964 31 46 C31.96808594 45.67773438 32.93617187 45.35546875 33.93359375 45.0234375 C38.32048298 43.77634698 42.52377054 43.63257086 47.0625 43.625 C47.83916016 43.60050781 48.61582031 43.57601562 49.41601562 43.55078125 C54.76933816 43.52358401 57.72811973 44.50541904 62 48 C65.28939137 51.28939137 65.56283464 54.45348023 66 59 C64.68 57.35 63.36 55.7 62 54 C62.34451901 57.70357935 62.64047064 59.58759868 65.125 62.4375 C67 65 67 65 66.75 68.8125 C66.5025 69.864375 66.255 70.91625 66 72 C65.34 71.67 64.68 71.34 64 71 C63.375 68.9375 63.375 68.9375 63 67 C61.02 66.505 61.02 66.505 59 66 C56.54420303 69.68564084 56.54420303 69.68564084 56 74 C58.31 74.66 60.62 75.32 63 76 C63 77.65 63 79.3 63 81 C62.01 81.495 62.01 81.495 61 82 C60.608125 81.525625 60.21625 81.05125 59.8125 80.5625 C57.74741744 78.52332645 57.74741744 78.52332645 53 78 C52.34 81.3 51.68 84.6 51 88 C48.25 88.75 48.25 88.75 45 89 C42.625 87.0625 42.625 87.0625 41 85 C43.31 85.33 45.62 85.66 48 86 C47.68806536 84.27073126 47.37542638 82.54158956 47.0625 80.8125 C46.80146484 79.36810547 46.80146484 79.36810547 46.53515625 77.89453125 C46.0476265 75.25760028 45.53328895 72.6280095 45 70 C42.69 70 40.38 70 38 70 C40.71604715 72.87420123 40.71604715 72.87420123 44 75 C43.505 76.98 43.505 76.98 43 79 C42.01 78.13375 42.01 78.13375 41 77.25 C37.52344894 74.64258671 33.92430901 72.83069502 30 71 C30 70.01 30 69.02 30 68 C35.94 67.01 35.94 67.01 42 66 C42.34946647 62.71673575 42.34946647 62.71673575 39.3125 60.25 C37.18870503 58.62126214 36.33688721 58.02659636 33.625 57.8125 C26.86068779 60.872546 20.70682758 66.29297155 16 72 C16 72.66 16 73.32 16 74 C17.11375 74.28875 18.2275 74.5775 19.375 74.875 C23.54994472 76.39918617 25.9107236 78.72125403 28.9375 81.9375 C33.69289656 86.91865045 38.00851828 90.47001642 45.0234375 91.21484375 C51.00239008 90.94307318 55.36645419 87.50733676 60 84 C58.16060371 88.84563428 56.29017957 92.76682638 51.5625 95.3125 C48.87785305 97.08043823 48.09558048 98.22651373 46.5 100.9375 C44.42502403 104.44750607 42.59648598 106.89473991 39 109 C37.5459375 108.9071875 37.5459375 108.9071875 36.0625 108.8125 C32.9963909 108.68145278 32.9963909 108.68145278 31.28515625 110.54296875 C29.78041858 112.31678892 28.35813236 114.11209969 27 116 C25.12890625 115.73828125 25.12890625 115.73828125 23 115 C21.83984375 113.29296875 21.83984375 113.29296875 20.9375 111.1875 C19.59679545 108.12056643 18.08397769 105.62711069 16 103 C15.97421875 103.65226562 15.9484375 104.30453125 15.921875 104.9765625 C15.55475098 110.63360985 15.06578829 114.71443937 11 119 C7.75 119.875 7.75 119.875 5 120 C4.67 119.34 4.34 118.68 4 118 C4.639375 117.773125 5.27875 117.54625 5.9375 117.3125 C8.27193661 116.14749104 8.27193661 116.14749104 8.75 113.375 C8.8325 112.59125 8.915 111.8075 9 111 C8.2575 111.94875 7.515 112.8975 6.75 113.875 C4.70394636 116.33837903 3.04440458 117.84522585 0 119 C-0.99 119.495 -0.99 119.495 -2 120 C-8.21805435 120.90303694 -12.34032604 119.77908661 -17.56640625 116.38671875 C-18.03949219 115.92910156 -18.51257812 115.47148437 -19 115 C-19 114.01 -19 113.02 -19 112 C-18.278125 112.515625 -17.55625 113.03125 -16.8125 113.5625 C-14.17396455 115.18014813 -14.17396455 115.18014813 -11.625 115 C-7.25478066 113.33515454 -3.1116443 110.99664268 -0.79296875 106.83203125 C-0.53128906 106.22746094 -0.26960938 105.62289062 0 105 C-0.90492187 105.70576172 -0.90492187 105.70576172 -1.828125 106.42578125 C-3.02695313 107.35970703 -3.02695313 107.35970703 -4.25 108.3125 C-5.03890625 108.92738281 -5.8278125 109.54226562 -6.640625 110.17578125 C-8.7462297 111.80379018 -10.86609343 113.40935863 -13 115 C-13 113.35 -13 111.7 -13 110 C-13.99 110.33 -14.98 110.66 -16 111 C-17.47686111 111.09247381 -18.95775501 111.12999071 -20.4375 111.125 C-21.19933594 111.12757813 -21.96117187 111.13015625 -22.74609375 111.1328125 C-24.95315859 111.00276015 -26.87969276 110.60856199 -29 110 C-29 109.34 -29 108.68 -29 108 C-26.98177083 108.03255208 -24.96354167 108.06510417 -22.9453125 108.09765625 C-20.91814596 108.12649242 -20.91814596 108.12649242 -19 107 C-20.32 106.01 -21.64 105.02 -23 104 C-23.33 104.33 -23.66 104.66 -24 105 C-30.09520486 105.52544869 -34.22026641 104.97729656 -39 101 C-42.30916061 97.3915613 -44.54709093 93.98199981 -45 89 C-39.375 88.75 -39.375 88.75 -36 91 C-36.33 90.01 -36.66 89.02 -37 88 C-37.60328125 87.97421875 -38.2065625 87.9484375 -38.828125 87.921875 C-42.5032029 87.66106302 -45.26429558 87.45274118 -48.4375 85.5 C-51.99211862 79.8126102 -52 73.50542669 -52 67 C-49.03 66.505 -49.03 66.505 -46 66 C-46 65.34 -46 64.68 -46 64 C-47.1446875 64.309375 -47.1446875 64.309375 -48.3125 64.625 C-51 65 -51 65 -54 63 C-54.3125 60 -54.3125 60 -54 57 C-53.34 56.34 -52.68 55.68 -52 55 C-52 57.31 -52 59.62 -52 62 C-50.02 61.505 -50.02 61.505 -48 61 C-48 60.01 -48 59.02 -48 58 C-43.67437961 55.7716501 -40.69542622 55.8048006 -36 57 C-35.01 58.051875 -35.01 58.051875 -34 59.125 C-33.34 59.74375 -32.68 60.3625 -32 61 C-28.30567489 60.85387105 -28.30567489 60.85387105 -25 60 C-27.31 58.68 -29.62 57.36 -32 56 C-32 55.34 -32 54.68 -32 54 C-31.09378906 54.27457031 -30.18757813 54.54914063 -29.25390625 54.83203125 C-20.7424458 57.24450274 -20.7424458 57.24450274 -12.625 54.6875 C-11.38850978 53.8309495 -10.16761167 52.94829837 -9 52 C-14.59371018 48.59023208 -21.62617465 48.80225981 -28 49 C-30.62744649 49.81125608 -32.79342383 50.81794591 -35.1953125 52.13671875 C-37 53 -37 53 -40 52.8125 C-42 52 -42 52 -43 51 C-43.04063832 49.33382885 -43.042721 47.66611905 -43 46 C-42.34 47.32 -41.68 48.64 -41 50 C-35.3497362 47.95006578 -35.3497362 47.95006578 -31 44 C-31 43.34 -31 42.68 -31 42 C-33.50407418 40.36272073 -34.90825552 39.99804799 -37.9375 40.0625 C-43.17298033 41.66519806 -45.6602486 45.44944794 -48.625 49.8125 C-49.40875 50.864375 -50.1925 51.91625 -51 53 C-51.99 53 -52.98 53 -54 53 C-53.72671875 52.45472656 -53.4534375 51.90945312 -53.171875 51.34765625 C-52.33650328 49.67412823 -51.51506532 47.99361448 -50.703125 46.30859375 C-46.7552381 38.50833333 -46.7552381 38.50833333 -42.75 35.8125 C-40 35 -40 35 -38 35 C-38.165 33.948125 -38.33 32.89625 -38.5 31.8125 C-38.89569678 28.79531204 -39.09178971 26.02906028 -39 23 C-40.65 23.33 -42.3 23.66 -44 24 C-43.34 22.68 -42.68 21.36 -42 20 C-37.44615385 19.63076923 -37.44615385 19.63076923 -35.1875 21.5 C-34.795625 21.995 -34.40375 22.49 -34 23 C-33.46375 22.505 -32.9275 22.01 -32.375 21.5 C-29.40641555 19.62510456 -27.44687573 19.76498575 -24 20 C-24.5775 20.4125 -25.155 20.825 -25.75 21.25 C-29.12174326 23.87012094 -29.12174326 23.87012094 -32 27 C-31.65506669 29.60568478 -31.65506669 29.60568478 -31 32 C-30.72027344 31.37351562 -30.44054687 30.74703125 -30.15234375 30.1015625 C-26.87516374 23.4207518 -26.87516374 23.4207518 -22.75 21.4375 C-21.5125 21.293125 -20.275 21.14875 -19 21 C-18.2265625 20.90976562 -17.453125 20.81953125 -16.65625 20.7265625 C-14.30618811 20.56633101 -12.30837965 20.52542295 -10 21 C-7.9375 23.5 -7.9375 23.5 -7 26 C-7.66 25.649375 -8.32 25.29875 -9 24.9375 C-13.39355879 23.56451288 -17.80536689 23.90268344 -22 26 C-22.65555119 28.52733235 -22.65555119 28.52733235 -23 31 C-21.35 31 -19.7 31 -18 31 C-18 31.99 -18 32.98 -18 34 C-19.98 34.495 -19.98 34.495 -22 35 C-22.33 36.32 -22.66 37.64 -23 39 C-21.68 39.99 -20.36 40.98 -19 42 C-18.72027344 41.33613281 -18.44054688 40.67226563 -18.15234375 39.98828125 C-15.33819326 33.78991121 -13.05551857 30.24402781 -7 27 C-4.0625 26.6875 -4.0625 26.6875 -2 27 C-2.495 28.485 -2.495 28.485 -3 30 C-3.7425 30 -4.485 30 -5.25 30 C-9.04512342 31.38004488 -9.64997594 33.45567968 -11.30078125 36.9921875 C-12.16443845 39.11783966 -12.16443845 39.11783966 -12 42 C-8.87293041 43.5635348 -5.42017557 43.39958487 -2 43 C-1.01 42.34 -0.02 41.68 1 41 C1.91178875 35.51283884 1.69458256 30.46634095 -0.6875 25.4375 C-6.23542491 19.58968726 -12.53647531 18.89927356 -20.13867188 17.5390625 C-27.86038943 16.06133773 -27.86038943 16.06133773 -31 13 C-30.67 11.68 -30.34 10.36 -30 9 C-29.31550781 9.62390625 -28.63101562 10.2478125 -27.92578125 10.890625 C-24.63352552 13.26421391 -22.14349524 13.95080904 -18.1875 14.75 C-17.02605469 14.99234375 -15.86460938 15.2346875 -14.66796875 15.484375 C-13.78753906 15.65453125 -12.90710937 15.8246875 -12 16 C-14.94303098 12.19753525 -14.94303098 12.19753525 -19.3359375 10.66796875 C-21.5758033 10.68563331 -23.77120799 10.78149098 -26 11 C-23.21466571 7.88009102 -21.15654359 7.46183818 -17 7 C-16.67 5.68 -16.34 4.36 -16 3 C-14.68 3 -13.36 3 -12 3 C-12 3.66 -12 4.32 -12 5 C-10.74445312 5.03738281 -9.48890625 5.07476563 -8.1953125 5.11328125 C9.04438673 5.74821977 9.04438673 5.74821977 17 9 C16.505 6.525 16.505 6.525 16 4 C12.68455701 2.89485234 9.79589889 2.67892369 6.3125 2.4375 C5.13300781 2.35371094 3.95351563 2.26992188 2.73828125 2.18359375 C1.38283203 2.09271484 1.38283203 2.09271484 0 2 C0 1.34 0 0.68 0 0 Z M-12 9 C-9.72163431 13.95026727 -6.81885421 16.31363992 -1.6875 18.25 C-0.800625 18.4975 0.08625 18.745 1 19 C1.99 17.02 2.98 15.04 4 13 C5.32 13 6.64 13 8 13 C7.01 13.804375 7.01 13.804375 6 14.625 C3.73166301 16.87968669 3.73166301 16.87968669 3.625 20.0625 C3.80232037 23.18542374 3.80232037 23.18542374 6 26 C6.66 26 7.32 26 8 26 C10.45847314 22.96306259 11.8786022 20.75873625 12.5 16.875 C11.87295302 13.26947988 10.93679613 12.14306745 8 10 C3.76252093 8.81780475 -0.44913692 8.88321893 -4.8125 8.9375 C-5.50537109 8.94201172 -6.19824219 8.94652344 -6.91210938 8.95117188 C-8.60811068 8.96286844 -10.30406703 8.98080076 -12 9 Z M31 24 C29.36976148 28.38910371 30.55883777 31.67651331 32 36 C35.78034623 32.52263974 35.78034623 32.52263974 38 28 C41.5625 26.8125 41.5625 26.8125 45 26 C44.1028125 25.566875 44.1028125 25.566875 43.1875 25.125 C41 24 41 24 38 22 C33.95377498 21.63019987 33.95377498 21.63019987 31 24 Z M46 54 C46.47050781 54.82757813 46.94101563 55.65515625 47.42578125 56.5078125 C49.13395388 60.29715824 49.75615847 63.79110591 50.1875 67.875 C50.26935547 68.56335938 50.35121094 69.25171875 50.43554688 69.9609375 C50.63370738 71.63947357 50.81827787 73.31960481 51 75 C51.33 75 51.66 75 52 75 C52.12117188 74.38511719 52.24234375 73.77023438 52.3671875 73.13671875 C52.61855469 71.92435547 52.61855469 71.92435547 52.875 70.6875 C53.03742188 69.88699219 53.19984375 69.08648437 53.3671875 68.26171875 C54 66 54 66 56 63 C56.38464895 57.66531571 56.38464895 57.66531571 54 53 C50.6857174 51.56381087 49.01782854 52.16774696 46 54 Z M-8.5625 57.75 C-19.30675836 64.46516147 -29.7317971 64.3883253 -42 64 C-42 65.98 -42 67.96 -42 70 C-44.64 69.67 -47.28 69.34 -50 69 C-49.814375 69.763125 -49.62875 70.52625 -49.4375 71.3125 C-49 74 -49 74 -50 77 C-48.12821884 80.18288354 -48.12821884 80.18288354 -46 83 C-45.319375 82.649375 -44.63875 82.29875 -43.9375 81.9375 C-40.12901724 80.72202678 -37.85492894 80.96742975 -34 82 C-31.32133407 84.14293275 -29.39334269 86.45844122 -27.3828125 89.2265625 C-23.69215307 94.26226226 -21.18694351 97.45326412 -15 99 C-14.01 98.34 -13.02 97.68 -12 97 C-10.94802274 91.44601254 -12.42716741 86.30830999 -14 81 C-14.4630576 75.72114338 -14.08797298 72.35949127 -11 68 C-8.45885368 66.13566226 -5.8770481 64.43873776 -3.1796875 62.80859375 C-0.77096203 61.15123675 -0.77096203 61.15123675 -0.1953125 58.28515625 C-0.13085938 57.53105469 -0.06640625 56.77695313 0 56 C-3.82883706 54.49986338 -5.28350667 55.4811743 -8.5625 57.75 Z M-44 61 C-41.69 61.33 -39.38 61.66 -37 62 C-37.66 61.01 -38.32 60.02 -39 59 C-41.32357511 58.81509993 -41.32357511 58.81509993 -44 61 Z M17 89 C17.33 90.98 17.66 92.96 18 95 C18.94875 94.835 19.8975 94.67 20.875 94.5 C24 94 24 94 26 94 C26.2475 94.7425 26.495 95.485 26.75 96.25 C28.09147301 99.20124062 29.60905526 100.84814974 32 103 C32.66 102.67 33.32 102.34 34 102 C33.02784094 95.90990765 33.02784094 95.90990765 30.25 90.5 C25.92513628 87.61675752 21.90242439 87.70229943 17 89 Z M-43 90 C-41.44499019 93.81684226 -38.96404505 96.19195732 -36 99 C-35.67 98.34 -35.34 97.68 -35 97 C-37.38957269 93.75700849 -39.2047869 91.49097658 -43 90 Z M35 92 C34.92345464 96.51617599 34.89771304 100.59085217 36 105 C40.40938215 104.49607061 42.78843816 103.0379639 46 100 C46.70387945 98.68593153 47.3780078 97.35475013 48 96 C47.39671875 95.87882812 46.7934375 95.75765625 46.171875 95.6328125 C45.37265625 95.46523437 44.5734375 95.29765625 43.75 95.125 C42.96109375 94.96257812 42.1721875 94.80015625 41.359375 94.6328125 C39.03168856 94.00849925 37.10968048 93.15161458 35 92 Z M8 101 C9 105 9 105 9 105 Z M25 101 C23.74050951 102.03406673 23.74050951 102.03406673 23.90234375 104.28515625 C23.91394531 105.20167969 23.92554687 106.11820312 23.9375 107.0625 C23.94652344 107.98160156 23.95554687 108.90070313 23.96484375 109.84765625 C23.97644531 110.55792969 23.98804687 111.26820313 24 112 C27.24208567 111.64950425 28.61527704 111.43778819 30.8125 108.9375 C31.204375 108.298125 31.59625 107.65875 32 107 C29.69 105.02 27.38 103.04 25 101 Z M7 105 C6.67 106.65 6.34 108.3 6 110 C6.66 109.67 7.32 109.34 8 109 C7.67 107.68 7.34 106.36 7 105 Z " fill="#E4F9F5" transform="translate(54,22)"/>
<path d="M0 0 C1.85928345 0.15490723 1.85928345 0.15490723 4 1 C5.22201538 3.34997559 5.22201538 3.34997559 6.25146484 6.52148438 C6.6469754 7.7120343 7.04248596 8.90258423 7.44998169 10.12921143 C7.87056749 11.45063927 8.29087803 12.77215475 8.7109375 14.09375 C9.15848499 15.4598627 9.60756087 16.82547553 10.05807495 18.19061279 C11.01566347 21.10231982 11.96305602 24.01707002 12.90246582 26.93469238 C14.3794184 31.52137498 15.87837572 36.10065907 17.38183594 40.67871094 C18.88181897 45.24894134 20.38088187 49.81944812 21.87219238 54.39251709 C25.31107063 64.93556296 28.83111935 75.44741277 32.44946289 85.9303894 C37.93544763 101.82640243 43.30027383 117.76294947 48.62976074 133.71203613 C49.45562941 136.18284152 50.28252303 138.65330456 51.11047363 141.12341309 C52.26162743 144.55911949 53.4087679 147.99613858 54.5546875 151.43359375 C54.90391266 152.47412399 55.25313782 153.51465424 55.61294556 154.5867157 C55.92871552 155.53706192 56.24448547 156.48740814 56.56982422 157.46655273 C56.84736542 158.29775131 57.12490662 159.12894989 57.41085815 159.9853363 C58 162 58 162 58 164 C54.7 164 51.4 164 48 164 C33.6589801 122.21539311 19.6827272 80.33584405 6.30862427 38.23075867 C4.90302789 33.80979048 3.48224555 29.3960616 2 25 C-1.61170072 33.53492947 -4.49173998 42.28892044 -7.3671875 51.08984375 C-7.88404829 52.66384084 -8.40118519 54.23774729 -8.9185791 55.81156921 C-10.29186115 59.99165313 -11.66113021 64.17304077 -13.02947235 68.35474396 C-14.44280729 72.67192903 -15.85960751 76.98797679 -17.27587891 81.30419922 C-20.28260845 90.4701598 -23.28356541 99.6380031 -26.2824707 108.80652618 C-26.95505219 110.86259538 -27.62785684 112.91859136 -28.30078125 114.97454834 C-30.6624066 122.19020906 -33.02099006 129.40685129 -35.375 136.625 C-35.79214264 137.90296951 -35.79214264 137.90296951 -36.2177124 139.20675659 C-38.90487852 147.44450079 -41.56018042 155.68469654 -44 164 C-47.3 164 -50.6 164 -54 164 C-52.3931379 155.75892896 -49.77333305 147.90951076 -47.10717773 139.96508789 C-46.60566664 138.45976261 -46.10454817 136.95430648 -45.60379028 135.44873047 C-44.25052889 131.38383859 -42.89170681 127.32082585 -41.53175998 123.25816655 C-40.10779896 119.00137382 -38.68873327 114.74294957 -37.26905823 110.48472595 C-34.88721931 103.34289378 -32.50200904 96.20219505 -30.11450195 89.06225586 C-27.04776161 79.89098204 -23.98662249 70.71784888 -20.92722988 61.54412174 C-18.2964965 53.65589662 -15.66320726 45.76852513 -13.02950406 37.88129115 C-12.18261587 35.34472736 -11.33608057 32.80804599 -10.4895916 30.27134895 C-9.16220354 26.29406967 -7.83322545 22.31732512 -6.50299454 18.34099579 C-6.01428997 16.87941188 -5.52609411 15.41765777 -5.03843498 13.95572472 C-4.3746647 11.9661545 -3.70905936 9.97720784 -3.04295349 7.98841858 C-2.48409533 6.31630609 -2.48409533 6.31630609 -1.91394711 4.61041355 C-1 2 -1 2 0 0 Z " fill="#E4F9F5" transform="translate(294,0)"/>
<path d="M0 0 C3.3 0 6.6 0 10 0 C8.69493144 6.50535895 6.87305872 12.50294547 4.5 18.69140625 C4.15174667 19.6123407 3.80349335 20.53327515 3.44468689 21.4821167 C2.69280307 23.46944291 1.9386141 25.45589823 1.18234253 27.44155884 C-0.0259044 30.63087792 -1.21313931 33.82739749 -2.39624023 37.02612305 C-6.00933762 46.75025338 -9.667625 56.41241262 -13.88354492 65.89369202 C-28.65873011 99.13273725 -30.4924605 128.1659107 -29 164 C-32.3 164 -35.6 164 -39 164 C-42.48201417 121.71740112 -36.32905862 90.61608118 -19.79888535 52.00284576 C-15.35908218 41.62517458 -11.45074774 31.07341205 -7.59814453 20.46679688 C-5.98649613 16.04445189 -4.33869247 11.63572792 -2.69140625 7.2265625 C-2.16202703 5.80556228 -1.63279173 4.38450844 -1.10375977 2.96337891 C-0.73951904 1.98546387 -0.37527832 1.00754883 0 0 Z " fill="#E4F9F5" transform="translate(451,0)"/>
<path d="M0 0 C2.31 0 4.62 0 7 0 C7.07028147 17.24688917 7.12308148 34.49373324 7.15543652 51.74073315 C7.17086313 59.7499745 7.19187153 67.75912654 7.22631836 75.76831055 C7.25635025 82.75435221 7.27560552 89.74032914 7.28226548 96.72643358 C7.28615456 100.42078917 7.29520506 104.1149597 7.31719017 107.8092556 C7.34161363 111.94738118 7.34196122 116.08519112 7.34057617 120.22338867 C7.351362 121.42964905 7.36214783 122.63590942 7.3732605 123.87872314 C7.33077551 135.67818945 5.76741776 147.64532731 -2 157 C-7.25301597 161.7666256 -11.95261614 163.7437315 -19 164 C-19.33 161.36 -19.66 158.72 -20 156 C-19.41992188 155.86464844 -18.83984375 155.72929687 -18.2421875 155.58984375 C-11.95839639 153.85817194 -8.52811813 151.49070474 -5 146 C-0.5015929 137.31342078 -0.84018462 128.64840203 -0.79467773 119.08813477 C-0.78477814 117.79964127 -0.77487854 116.51114777 -0.76467896 115.18360901 C-0.7377721 111.6676262 -0.71668609 108.15163016 -0.69667697 104.63560224 C-0.67472911 100.95471142 -0.64738369 97.27386071 -0.62062073 93.59300232 C-0.57081234 86.63047827 -0.5258298 79.66793182 -0.48259836 72.70536417 C-0.43312434 64.77545925 -0.37824408 56.8455946 -0.32291877 48.91572869 C-0.20928082 32.61052296 -0.10240257 16.30528024 0 0 Z " fill="#E4F8F5" transform="translate(207,0)"/>
<path d="M0 0 C2.97 0 5.94 0 9 0 C10.71214836 6.37122582 12.4210648 12.74330614 14.12695312 19.11621094 C14.70808937 21.28539622 15.29011796 23.45434265 15.87304688 25.62304688 C16.70936411 28.73505726 17.54249915 31.84790433 18.375 34.9609375 C18.63748535 35.934935 18.8999707 36.9089325 19.17041016 37.91244507 C19.41065918 38.81322784 19.6509082 39.71401062 19.8984375 40.64208984 C20.11161621 41.43706879 20.32479492 42.23204773 20.54443359 43.05111694 C21 45 21 45 21 47 C18.03 47 15.06 47 12 47 C10.28785164 40.62877418 8.5789352 34.25669386 6.87304688 27.88378906 C6.29191063 25.71460378 5.70988204 23.54565735 5.12695312 21.37695312 C4.29063589 18.26494274 3.45750085 15.15209567 2.625 12.0390625 C2.36251465 11.065065 2.1000293 10.0910675 1.82958984 9.08755493 C1.58934082 8.18677216 1.3490918 7.28598938 1.1015625 6.35791016 C0.88838379 5.56293121 0.67520508 4.76795227 0.45556641 3.94888306 C0 2 0 2 0 0 Z " fill="#E4F9F5" transform="translate(284,117)"/>
<path d="M0 0 C2.43259577 1.08115368 4.17956886 2.1590467 6.1875 3.9375 C9.86338398 6.63314825 13.65483474 7.75040999 18 9 C18 11.64 18 14.28 18 17 C10.17074517 16.44076751 4.27998083 14.3918481 -1.5 8.9375 C-4 6 -4 6 -4 3 C-2 1.3125 -2 1.3125 0 0 Z " fill="#E4F9F5" transform="translate(164,147)"/>
<path d="M0 0 C3.3 0 6.6 0 10 0 C10.84212256 1.91282125 11.67338864 3.83042473 12.5 5.75 C12.9640625 6.81734375 13.428125 7.8846875 13.90625 8.984375 C15 12 15 12 15 16 C11.7 16 8.4 16 5 16 C4.1605118 13.89828133 3.32860344 11.79353375 2.5 9.6875 C2.0359375 8.51574219 1.571875 7.34398437 1.09375 6.13671875 C0 3 0 3 0 0 Z " fill="#E4F9F5" transform="translate(375,0)"/>
</svg>
